<svg width="189" height="213" viewBox="0 0 189 213" fill="none" xmlns="http://www.w3.org/2000/svg">
<path fill-rule="evenodd" clip-rule="evenodd" d="M44.476 1.396C39.525 3.553 39 6.096 39 27.912C39 46.623 39.119 47.882 41.131 50.44C44.052 54.153 47.496 55.321 51.562 53.979C57.672 51.963 58.129 50.165 58.251 27.677C58.371 5.767 58.039 4.106 53.02 1.51C49.51 -0.304997 48.413 -0.318997 44.476 1.396ZM136.476 1.396C131.525 3.553 131 6.096 131 27.912C131 46.623 131.119 47.882 133.131 50.44C136.019 54.111 139.499 55.321 143.433 54.022C149.391 52.056 150 49.553 150 27.03C150 14.5 149.591 6.104 148.92 4.85C147.96 3.057 142.355 -0.0649975 140.282 0.0390025C139.852 0.0610025 138.139 0.671003 136.476 1.396ZM6.40099 22.897C-0.203012 26.924 -1.05973e-05 23.948 0.0019894 116.77C0.0029894 210.179 -0.39301 204.86 6.92199 209.746L10.344 212.033L95.592 211.766L180.839 211.5L183.507 209C189.189 203.675 189 206.889 189 115.779C189 39.406 188.849 31.484 187.33 28.283C184.544 22.412 181.058 21.008 169.25 21.004L159 21V32.5V44H162.5H166V116.5V189H94.5H23V116.5V44H27H31V32.5V21L20.25 21.004C11.474 21.007 8.93099 21.354 6.40099 22.897ZM67 32.5V44H95H123V32.5V21H95H67V32.5ZM47 88V109H86H125V103.5V98H98.5H72V91.5V85H106H140V76V67H93.5H47V88ZM47 145.5V168H93.5H140V158.5V149H106H72V142V135H98.5H125V129V123H86H47V145.5Z" fill="#2348C9"/>
</svg>
